<?xml version="1.0" standalone="no"?>
<!DOCTYPE svg PUBLIC "-//W3C//DTD SVG 20010904//EN"
 "http://www.w3.org/TR/2001/REC-SVG-20010904/DTD/svg10.dtd">
<svg version="1.0" xmlns="http://www.w3.org/2000/svg"
 width="607.000000pt" height="410.000000pt" viewBox="0 0 607.000000 410.000000"
 preserveAspectRatio="xMidYMid meet">
<metadata>
Created by potrace 1.16, written by Peter Selinger 2001-2019
</metadata>
<g transform="translate(0.000000,410.000000) scale(0.100000,-0.100000)"
fill="#000000" stroke="none">
<path d="M5918 4084 c-3 -3 -144 -5 -314 -5 -213 0 -312 -4 -322 -11 -10 -9
-22 -8 -48 1 -39 14 -185 7 -222 -12 -18 -8 -28 -8 -42 1 -31 19 -192 16 -228
-5 -29 -17 -31 -17 -50 0 -25 23 -183 25 -202 2 -16 -19 -64 -19 -80 0 -15 18
-167 10 -191 -11 -21 -18 -63 -18 -79 1 -9 11 -33 15 -91 15 -66 0 -82 -3 -99
-20 -11 -11 -31 -20 -43 -20 -13 0 -32 9 -42 20 -15 16 -31 20 -90 20 -61 0
-75 -3 -86 -20 -22 -31 -60 -35 -94 -8 -25 19 -39 22 -95 19 -48 -2 -70 -8
-83 -22 -24 -26 -83 -26 -99 1 -11 17 -24 20 -79 20 -57 0 -69 -3 -89 -25 -14
-15 -35 -25 -52 -25 -18 0 -38 10 -52 25 -19 21 -32 25 -79 25 -48 0 -59 -4
-85 -30 -37 -37 -61 -38 -100 -5 -24 20 -41 25 -86 25 -49 0 -60 -4 -80 -27
-31 -36 -81 -36 -112 0 -19 23 -31 27 -75 27 -44 0 -55 -4 -79 -30 -38 -41
-82 -41 -120 0 -24 26 -35 30 -78 30 -42 0 -52 -3 -57 -21 -4 -11 -22 -27 -40
-36 -28 -14 -38 -14 -65 -3 -17 7 -35 21 -41 31 -7 15 -21 19 -60 19 -44 0
-54 -4 -76 -30 -19 -24 -33 -30 -63 -30 -30 0 -44 6 -63 30 -21 24 -33 30 -67
30 -34 0 -47 -6 -74 -35 -46 -48 -86 -48 -132 0 -26 28 -40 35 -72 35 -32 0
-41 -4 -50 -26 -16 -34 -72 -57 -107 -44 -36 14 -37 13 -24 -11 6 -12 9 -37 6
-55 -5 -32 -5 -32 27 -27 18 3 43 0 55 -6 20 -11 21 -10 15 16 -4 15 -7 30 -6
33 1 55 36 90 91 90 32 0 44 -6 65 -31 14 -17 26 -39 26 -50 0 -62 -67 -112
-121 -92 -16 6 -29 10 -29 9 0 -2 5 -16 10 -33 7 -20 8 -38 1 -56 -10 -25 -9
-25 20 -15 20 7 38 7 59 -1 29 -9 30 -9 19 11 -28 53 22 128 86 128 77 0 115
-100 59 -157 -21 -21 -32 -25 -67 -21 l-42 5 0 -51 0 -51 51 0 51 0 -5 41 c-3
33 1 46 21 69 20 24 33 30 67 30 100 0 126 -132 35 -171 -25 -10 -41 -11 -60
-4 -36 14 -37 13 -24 -11 6 -12 9 -37 6 -55 -5 -32 -5 -32 27 -27 18 3 42 0
53 -5 19 -11 20 -8 15 38 -4 42 -1 52 21 74 39 39 97 36 131 -5 31 -37 33 -63
6 -106 -22 -37 -74 -52 -110 -33 -21 11 -22 10 -14 -6 4 -11 8 -38 7 -61 0
-40 0 -41 23 -31 18 8 31 8 49 0 35 -16 35 -16 23 18 -19 57 25 120 85 120 65
0 108 -64 83 -125 -18 -42 -48 -59 -95 -52 l-36 4 0 -51 0 -51 51 0 51 0 -5
41 c-3 33 1 46 21 69 54 64 157 24 157 -61 0 -53 -39 -87 -100 -86 -3 0 -16 3
-28 7 -22 6 -23 5 -12 -15 7 -13 10 -37 7 -54 l-5 -31 53 0 c51 0 52 1 44 23
-10 26 8 79 34 101 9 7 33 13 54 13 29 0 43 -7 65 -31 15 -17 28 -40 28 -52 0
-62 -67 -112 -122 -91 -26 10 -29 9 -22 -6 5 -9 8 -34 7 -55 -1 -37 0 -38 26
-32 15 3 40 1 55 -4 24 -10 26 -9 16 8 -30 56 18 131 83 131 79 0 118 -100 61
-157 -21 -21 -32 -25 -67 -21 l-42 5 0 -51 0 -51 51 0 51 0 -5 41 c-3 33 1 46
21 69 54 64 157 24 157 -61 0 -24 -8 -43 -26 -61 -22 -22 -32 -25 -74 -21 -46
5 -49 4 -38 -15 5 -11 8 -34 5 -51 l-5 -31 52 0 51 0 -3 42 c-5 57 29 93 87
93 32 0 44 -6 65 -31 30 -35 32 -58 11 -98 -19 -38 -68 -58 -107 -43 -26 10
-29 9 -23 -6 15 -34 17 -60 6 -80 -11 -20 -10 -20 19 -11 21 8 39 8 59 1 29
-10 30 -10 20 15 -22 58 22 123 83 123 42 0 68 -17 84 -56 12 -29 12 -39 0
-68 -18 -43 -48 -60 -95 -53 l-36 4 0 -51 0 -51 51 0 51 0 -5 42 c-4 37 -1 46
26 73 41 40 83 41 123 1 38 -38 39 -87 3 -126 -23 -24 -31 -27 -74 -23 -46 5
-49 4 -38 -15 5 -11 8 -34 5 -51 l-5 -31 53 0 c49 0 52 1 45 21 -21 54 23 115
85 117 30 1 43 -5 66 -31 32 -36 36 -60 14 -101 -19 -38 -65 -57 -105 -42 -30
10 -31 9 -23 -12 4 -12 7 -36 6 -54 -1 -30 0 -31 31 -26 18 3 43 0 55 -7 21
-11 22 -10 12 9 -19 35 -13 71 18 102 61 60 151 24 151 -61 0 -70 -70 -112
-131 -79 -19 10 -20 9 -9 -11 7 -12 10 -39 8 -59 l-3 -36 51 0 51 0 -5 42 c-4
37 -1 46 26 73 41 40 83 41 123 1 39 -39 40 -91 3 -128 -22 -22 -32 -25 -74
-21 -46 5 -49 4 -38 -15 5 -11 8 -34 5 -51 l-5 -31 52 0 51 0 -3 42 c-5 57 29
93 87 93 32 0 44 -6 65 -31 14 -17 26 -39 26 -50 0 -62 -67 -112 -121 -92 -33
13 -33 13 -18 -21 8 -17 8 -33 1 -54 -10 -30 -10 -30 19 -20 20 7 38 7 58 0
29 -10 30 -10 20 15 -23 60 23 123 88 123 78 0 114 -102 56 -156 -23 -21 -35
-25 -68 -22 l-40 5 0 -52 c0 -51 1 -52 25 -45 14 4 37 4 51 0 26 -7 26 -7 21
36 -4 38 -1 47 26 74 41 40 83 41 123 1 31 -31 36 -64 18 -104 -16 -35 -51
-51 -98 -44 -38 5 -40 4 -30 -15 6 -12 9 -35 6 -52 l-5 -31 53 0 c51 0 52 1
46 25 -16 61 24 114 86 114 27 0 42 -7 64 -32 16 -18 29 -41 29 -53 0 -62 -68
-111 -124 -89 -26 9 -27 9 -19 -12 4 -13 7 -37 6 -55 -1 -30 0 -31 31 -26 18
3 43 0 54 -6 20 -11 21 -10 12 14 -16 43 -12 65 19 96 61 60 151 24 151 -61 0
-65 -60 -106 -122 -82 -26 10 -27 9 -17 -10 6 -12 9 -38 6 -59 -5 -37 -5 -37
22 -28 18 6 37 6 53 0 25 -9 25 -9 20 34 -4 39 -1 48 26 75 41 40 83 41 123 1
38 -38 39 -87 3 -126 -23 -24 -31 -27 -74 -23 -46 5 -49 4 -38 -15 5 -11 8
-34 5 -51 l-5 -31 52 0 51 0 -4 43 c-4 49 21 85 65 96 49 13 114 -39 114 -90
0 -58 -70 -105 -125 -84 -24 9 -26 8 -19 -7 4 -10 8 -35 7 -55 -1 -36 0 -36
32 -31 18 3 42 0 53 -6 20 -11 21 -10 12 14 -16 43 -12 65 19 96 60 59 151 24
151 -59 0 -61 -54 -103 -112 -89 -22 6 -23 3 -23 -47 0 -53 0 -53 26 -44 16 5
36 5 51 -1 25 -9 25 -9 20 34 -4 39 -1 48 26 75 41 40 83 41 123 1 31 -31 36
-64 18 -104 -16 -35 -51 -51 -98 -44 -38 5 -40 4 -30 -15 6 -12 9 -35 6 -52
l-5 -31 53 0 c51 0 52 1 44 24 -18 45 19 105 72 116 49 11 109 -39 109 -90 0
-56 -64 -101 -119 -85 -29 8 -32 7 -25 -8 5 -9 8 -34 7 -54 -1 -36 0 -36 32
-31 18 3 42 0 53 -6 20 -11 21 -10 12 14 -16 41 -12 61 16 94 52 63 154 28
154 -53 0 -19 -3 -42 -6 -51 -10 -25 -62 -48 -98 -41 l-31 6 0 -54 c0 -53 0
-53 26 -44 16 5 36 5 53 -2 36 -13 43 -13 28 2 -41 41 14 138 78 138 39 0 90
-47 90 -84 0 -65 -43 -102 -110 -93 -35 4 -39 3 -29 -9 7 -8 9 -30 7 -52 l-5
-37 52 0 52 0 -5 43 c-5 47 13 77 57 93 51 20 121 -30 121 -86 0 -59 -70 -106
-125 -85 -24 9 -26 8 -19 -7 4 -10 8 -35 7 -55 -1 -36 0 -36 32 -31 18 3 42 0
53 -6 20 -11 21 -10 12 14 -16 41 -12 61 16 94 54 64 154 28 154 -57 0 -21 -6
-44 -12 -51 -11 -12 -9 -13 7 -6 54 21 84 18 115 -14 44 -44 105 -44 148 -1
41 40 83 40 124 0 24 -24 38 -30 74 -30 38 0 49 5 71 30 32 39 79 41 121 5 25
-21 40 -25 91 -25 l61 0 0 48 c0 26 -11 900 -25 1942 -14 1042 -25 1921 -25
1953 l0 57 -43 0 c-24 0 -46 -2 -49 -6z m-3968 -112 c31 -39 26 -85 -12 -117
-38 -32 -81 -29 -115 11 -40 44 -26 105 29 128 39 17 74 9 98 -22z m268 2 c25
-28 28 -54 10 -87 -29 -56 -84 -63 -130 -17 -25 26 -29 36 -24 62 15 77 92
100 144 42z m267 6 c25 -25 25 -82 0 -110 -20 -22 -73 -27 -105 -10 -29 15
-40 61 -24 98 22 54 85 64 129 22z m268 -2 c38 -45 1 -128 -58 -128 -35 0 -75
42 -75 78 0 71 87 105 133 50z m262 7 c14 -13 25 -36 25 -50 0 -14 -11 -37
-25 -50 -13 -14 -36 -25 -50 -25 -28 0 -75 40 -75 64 0 73 76 111 125 61z
m272 2 c6 -7 15 -24 18 -38 9 -35 -30 -81 -68 -81 -73 0 -98 99 -33 131 24 11
65 6 83 -12z m-1608 -11 c33 -35 31 -93 -4 -123 -58 -50 -145 -13 -145 62 0
77 97 116 149 61z m135 -132 c50 -51 22 -136 -50 -150 -26 -5 -38 0 -65 24
-26 23 -33 37 -33 67 0 76 93 113 148 59z m251 20 c19 -8 45 -55 45 -84 0 -33
-53 -80 -90 -80 -44 0 -80 39 -80 85 0 63 63 102 125 79z m277 -8 c42 -31 40
-113 -2 -136 -56 -30 -130 10 -130 70 0 62 83 104 132 66z m275 -8 c48 -45 13
-138 -52 -138 -35 0 -85 50 -85 85 0 63 89 98 137 53z m272 -4 c28 -35 26 -69
-4 -99 -61 -62 -160 8 -120 85 17 32 27 38 72 39 23 1 37 -6 52 -25z m271 -1
c37 -47 4 -113 -57 -113 -42 0 -73 30 -73 70 0 67 88 96 130 43z m262 10 c28
-25 24 -77 -8 -102 -15 -12 -35 -21 -46 -21 -27 0 -68 45 -68 75 0 55 79 87
122 48z m-1469 -141 c10 -10 20 -35 24 -55 5 -31 1 -40 -25 -67 -41 -40 -83
-41 -123 -1 -63 63 -12 160 76 146 16 -3 38 -14 48 -23z m248 18 c27 -15 51
-67 43 -93 -30 -100 -168 -84 -168 20 0 61 69 102 125 73z m284 -15 c44 -43
31 -112 -25 -135 -35 -15 -84 0 -100 31 -30 55 10 129 70 129 19 0 40 -9 55
-25z m270 0 c16 -15 25 -36 25 -55 0 -19 -9 -40 -25 -55 -15 -16 -36 -25 -55
-25 -19 0 -40 9 -55 25 -16 15 -25 36 -25 55 0 19 9 40 25 55 15 16 36 25 55
25 19 0 40 -9 55 -25z m250 19 c23 -9 47 -61 39 -87 -12 -39 -35 -57 -75 -57
-70 0 -103 77 -54 125 24 24 57 31 90 19z m283 -14 c32 -30 30 -82 -4 -109
-34 -27 -57 -26 -88 2 -36 32 -39 74 -6 107 26 26 70 26 98 0z m269 -2 c29
-27 29 -65 1 -95 -43 -46 -118 -16 -118 47 0 62 71 92 117 48z m-1467 -144
c55 -53 13 -144 -66 -144 -93 0 -117 128 -31 165 38 17 64 11 97 -21z m268 4
c53 -50 11 -142 -65 -142 -66 0 -105 78 -67 132 32 46 88 50 132 10z m270 -4
c64 -72 -28 -173 -106 -118 -51 36 -50 103 2 135 38 24 72 18 104 -17z m264 6
c25 -26 29 -36 24 -63 -18 -92 -156 -89 -156 4 0 39 16 68 43 79 38 15 58 11
89 -20z m262 9 c59 -47 15 -149 -59 -135 -95 19 -81 152 16 155 9 1 28 -8 43
-20z m279 -11 c51 -60 -22 -146 -93 -108 -48 26 -49 99 -2 125 33 18 71 11 95
-17z m262 7 c30 -30 31 -54 4 -89 -41 -52 -119 -25 -119 41 0 67 68 96 115 48z
m-1470 -140 c54 -53 17 -146 -58 -148 -80 -2 -119 92 -62 148 33 34 87 34 120
0z m270 -1 c34 -37 33 -78 -4 -115 -57 -56 -141 -23 -141 56 0 78 93 115 145
59z m254 16 c31 -16 46 -65 31 -100 -23 -56 -92 -69 -135 -25 -67 66 20 171
104 125z m281 -10 c25 -25 26 -80 3 -109 -10 -11 -32 -24 -50 -27 -27 -5 -37
-1 -64 25 -26 27 -30 37 -25 64 3 18 16 40 27 50 29 23 84 22 109 -3z m267 -2
c31 -29 30 -72 -2 -103 -49 -50 -125 -19 -125 50 0 68 77 100 127 53z m272 -4
c12 -15 21 -34 21 -44 0 -10 -9 -29 -21 -44 -41 -52 -129 -23 -129 44 0 67 88
96 129 44z m265 7 c25 -28 17 -79 -16 -104 -68 -51 -143 46 -82 107 22 22 77
20 98 -3z m-1477 -135 c39 -34 39 -98 0 -132 -39 -33 -81 -31 -118 5 -20 20
-29 39 -29 61 0 22 9 41 29 61 37 36 79 38 118 5z m269 0 c59 -50 22 -146 -56
-146 -78 0 -115 96 -56 146 15 13 40 24 56 24 16 0 41 -11 56 -24z m269 -1
c44 -43 31 -112 -25 -135 -35 -15 -84 0 -100 31 -30 55 10 129 70 129 19 0 40
-9 55 -25z m270 0 c16 -15 25 -36 25 -55 0 -19 -9 -40 -25 -55 -15 -16 -36
-25 -55 -25 -19 0 -40 9 -55 25 -16 15 -25 36 -25 55 0 19 9 40 25 55 15 16
36 25 55 25 19 0 40 -9 55 -25z m250 19 c23 -9 47 -61 39 -87 -12 -39 -35 -57
-75 -57 -70 0 -103 77 -54 125 24 24 57 31 90 19z m285 -14 c30 -30 27 -83 -6
-109 -15 -12 -34 -21 -44 -21 -10 0 -29 9 -44 21 -52 41 -23 129 44 129 17 0
39 -9 50 -20z m267 -2 c29 -27 29 -65 1 -95 -43 -46 -118 -16 -118 47 0 62 71
92 117 48z m-1469 -142 c53 -56 14 -146 -63 -146 -73 0 -111 84 -65 143 32 40
93 42 128 3z m270 2 c30 -29 29 -79 -2 -114 -67 -79 -189 19 -130 104 32 46
88 50 132 10z m263 3 c42 -43 34 -106 -18 -130 -39 -18 -63 -13 -95 19 -25 26
-29 36 -24 62 7 36 22 57 51 68 36 15 56 11 86 -19z m271 2 c36 -32 25 -110
-17 -127 -62 -23 -115 10 -115 72 0 71 78 104 132 55z m263 2 c33 -32 33 -78
-1 -112 -61 -61 -155 20 -113 98 22 42 80 49 114 14z m270 0 c14 -13 25 -36
25 -50 0 -14 -11 -37 -25 -50 -13 -14 -36 -25 -50 -25 -14 0 -37 11 -50 25
-14 13 -25 36 -25 50 0 14 11 37 25 50 13 14 36 25 50 25 14 0 37 -11 50 -25z
m263 8 c32 -27 37 -64 12 -96 -53 -67 -154 -2 -115 73 21 41 69 52 103 23z
m-1463 -148 c33 -32 33 -84 1 -121 -51 -60 -150 -19 -150 62 0 74 96 113 149
59z m265 5 c28 -28 36 -69 19 -99 -46 -82 -159 -55 -159 38 0 31 6 44 26 60
34 27 88 27 114 1z m260 10 c42 -23 44 -105 2 -136 -28 -22 -80 -17 -107 11
-67 67 20 171 105 125z m277 -12 c46 -43 21 -122 -44 -134 -27 -5 -37 -1 -63
24 -37 37 -39 74 -5 107 31 32 80 33 112 3z m272 -4 c28 -35 26 -69 -4 -99
-30 -31 -66 -32 -101 -2 -56 48 -24 127 51 127 24 0 39 -7 54 -26z m266 6 c42
-46 10 -120 -52 -120 -42 0 -73 30 -73 70 0 62 84 95 125 50z m267 3 c28 -25
24 -77 -8 -102 -15 -12 -35 -21 -46 -21 -27 0 -68 45 -68 75 0 55 79 87 122
48z m-1477 -135 c15 -14 28 -38 32 -60 5 -32 1 -41 -25 -68 -41 -40 -83 -41
-123 -1 -33 33 -38 74 -13 109 31 45 89 54 129 20z m271 -2 c59 -50 20 -146
-60 -146 -74 0 -109 98 -52 146 15 13 40 24 56 24 16 0 41 -11 56 -24z m269
-1 c46 -45 24 -125 -39 -141 -28 -7 -81 18 -90 41 -22 60 16 125 74 125 19 0
40 -9 55 -25z m270 0 c16 -15 25 -36 25 -55 0 -19 -9 -40 -25 -55 -15 -16 -36
-25 -55 -25 -19 0 -40 9 -55 25 -16 15 -25 36 -25 55 0 19 9 40 25 55 15 16
36 25 55 25 19 0 40 -9 55 -25z m250 19 c24 -10 46 -60 39 -89 -14 -56 -87
-73 -129 -30 -14 13 -25 36 -25 50 0 51 63 89 115 69z m285 -14 c30 -30 27
-83 -6 -109 -34 -27 -57 -26 -88 2 -53 47 -25 127 44 127 17 0 39 -9 50 -20z
m267 -2 c29 -27 29 -65 1 -95 -43 -46 -118 -16 -118 47 0 62 71 92 117 48z
m-1467 -143 c55 -55 14 -145 -66 -145 -68 0 -108 82 -68 138 33 47 90 50 134
7z m268 3 c53 -50 11 -142 -65 -142 -66 0 -105 78 -67 132 32 46 88 50 132 10z
m270 -4 c30 -34 28 -75 -4 -108 -32 -31 -71 -34 -107 -6 -31 25 -41 63 -25 98
27 56 93 64 136 16z m264 6 c25 -26 29 -36 24 -63 -18 -95 -156 -87 -156 9 0
43 37 84 75 84 16 0 39 -12 57 -30z m262 9 c20 -16 26 -29 26 -58 0 -61 -55
-95 -108 -67 -49 25 -57 82 -17 121 30 30 64 32 99 4z m271 -4 c14 -13 25 -36
25 -50 0 -14 -11 -37 -25 -50 -13 -14 -36 -25 -50 -25 -31 0 -75 41 -75 70 0
69 77 103 125 55z m263 8 c52 -44 24 -123 -42 -123 -64 0 -92 74 -46 120 25
25 61 26 88 3z m-118 -151 c25 -32 25 -53 -1 -86 -39 -50 -129 -23 -129 38 0
39 11 57 43 71 38 16 62 9 87 -23z m263 10 c27 -24 19 -80 -14 -105 -53 -38
-125 18 -104 80 18 51 75 63 118 25z m-1608 -7 c56 -55 16 -145 -63 -145 -52
0 -86 36 -85 87 2 75 96 111 148 58z m270 0 c35 -34 33 -78 -4 -116 -37 -37
-78 -38 -115 -4 -19 17 -26 34 -26 60 0 76 92 114 145 60z m250 19 c23 -9 48
-62 41 -90 -16 -63 -96 -85 -141 -39 -65 64 11 163 100 129z m285 -14 c21 -21
26 -69 10 -99 -14 -28 -61 -44 -93 -32 -56 21 -71 88 -30 134 23 24 87 23 113
-3z m267 -2 c31 -29 30 -72 -2 -103 -48 -49 -125 -17 -125 52 0 66 77 98 127
51z m-935 -138 c26 -27 30 -36 25 -67 -9 -52 -38 -78 -88 -78 -81 0 -117 88
-60 146 40 40 82 39 123 -1z m264 6 c59 -50 22 -146 -56 -146 -78 0 -115 96
-56 146 15 13 40 24 56 24 16 0 41 -11 56 -24z m269 -1 c62 -62 -2 -162 -85
-134 -82 29 -57 159 30 159 19 0 40 -9 55 -25z m270 0 c50 -49 15 -135 -55
-135 -41 0 -80 39 -80 80 0 41 39 80 80 80 19 0 40 -9 55 -25z m266 6 c17 -13
23 -29 23 -56 0 -71 -90 -104 -133 -49 -28 35 -26 69 4 99 29 30 73 33 106 6z
m269 -1 c58 -58 -17 -160 -86 -115 -36 23 -47 60 -29 95 8 15 20 30 27 33 29
12 69 6 88 -13z m270 -2 c26 -28 26 -66 -2 -95 -42 -45 -118 -15 -118 47 0 63
77 93 120 48z m-1472 -140 c31 -30 30 -91 -3 -123 -52 -53 -145 -16 -145 57 0
85 86 123 148 66z m270 -4 c29 -33 28 -76 -2 -110 -67 -79 -189 19 -130 104
33 48 92 50 132 6z m263 7 c17 -18 29 -40 29 -56 0 -16 -12 -38 -29 -56 -18
-17 -40 -29 -56 -29 -35 0 -85 50 -85 85 0 35 50 85 85 85 16 0 38 -12 56 -29z
m262 9 c33 -26 41 -63 23 -99 -17 -32 -34 -41 -77 -41 -69 0 -97 89 -43 138
31 27 63 28 97 2z m272 -5 c51 -50 20 -129 -50 -129 -45 0 -75 31 -75 76 0 36
40 78 75 78 14 0 37 -11 50 -25z m270 0 c14 -13 25 -36 25 -50 0 -33 -42 -75
-75 -75 -33 0 -75 42 -75 75 0 33 42 75 75 75 14 0 37 -11 50 -25z m266 7 c48
-40 17 -122 -46 -122 -40 0 -68 30 -68 72 0 36 32 68 68 68 13 0 33 -8 46 -18z
m-393 -148 c29 -33 28 -69 -3 -99 -30 -31 -66 -32 -101 -2 -45 39 -34 106 21
127 28 12 56 3 83 -26z m266 6 c24 -24 25 -74 1 -100 -39 -44 -125 -12 -125
46 0 74 71 105 124 54z m269 2 c47 -42 -10 -137 -70 -116 -59 21 -69 99 -15
128 30 16 57 12 85 -12z m-1608 -7 c45 -44 29 -116 -30 -141 -59 -24 -119 17
-119 83 0 74 97 111 149 58z m265 5 c44 -44 34 -108 -21 -139 -79 -44 -160 69
-97 136 28 30 89 32 118 3z m260 10 c22 -12 42 -64 33 -88 -22 -63 -94 -82
-138 -37 -50 49 -17 135 51 135 20 0 44 -4 54 -10z m280 -12 c35 -38 25 -100
-21 -123 -40 -21 -57 -19 -90 14 -34 35 -37 68 -8 105 27 34 88 37 119 4z
m-669 -137 c54 -54 25 -135 -53 -148 -32 -5 -41 -1 -68 25 -40 41 -41 83 -1
123 20 20 39 29 61 29 22 0 41 -9 61 -29z m265 5 c58 -49 20 -146 -56 -146
-16 0 -41 11 -56 24 -58 49 -20 146 56 146 16 0 41 -11 56 -24z m269 -1 c65
-64 -12 -173 -93 -131 -34 17 -42 34 -42 81 0 67 87 99 135 50z m270 0 c34
-33 33 -78 -1 -110 -35 -32 -78 -32 -109 0 -50 49 -15 135 55 135 19 0 40 -9
55 -25z m266 6 c17 -13 23 -29 23 -56 0 -45 -31 -75 -76 -75 -36 0 -78 40 -78
75 0 61 82 96 131 56z m269 -1 c30 -30 27 -83 -6 -109 -34 -27 -57 -26 -90 2
-53 46 -23 127 47 127 16 0 38 -9 49 -20z m270 -2 c11 -12 20 -32 20 -45 0
-30 -42 -73 -71 -73 -32 0 -69 38 -69 72 0 61 78 91 120 46z m-1482 -133 c38
-32 47 -67 27 -105 -29 -56 -95 -68 -139 -24 -56 56 -15 150 66 153 9 1 30
-10 46 -24z m271 -1 c24 -20 31 -34 31 -63 0 -77 -90 -112 -145 -56 -35 34
-33 78 4 116 36 36 70 37 110 3z m279 -10 c30 -34 28 -70 -7 -105 -34 -34 -68
-37 -104 -9 -31 25 -41 63 -25 98 27 56 93 64 136 16z m263 7 c33 -33 35 -50
14 -90 -16 -31 -33 -41 -73 -41 -67 0 -99 97 -46 139 37 29 70 26 105 -8z
m263 8 c46 -36 28 -119 -29 -133 -29 -7 -79 15 -89 39 -12 33 -5 66 19 90 30
30 64 32 99 4z m271 -4 c14 -13 25 -36 25 -50 0 -33 -42 -75 -75 -75 -33 0
-75 42 -75 75 0 33 42 75 75 75 14 0 37 -11 50 -25z m270 0 c30 -30 31 -54 4
-89 -52 -66 -153 -1 -114 74 24 47 72 54 110 15z m-694 -115 c20 0 49 -42 49
-71 0 -43 -15 -65 -50 -78 -59 -20 -118 29 -105 88 9 42 52 75 83 65 8 -2 18
-4 23 -4z m567 -26 c29 -32 28 -59 -3 -89 -46 -47 -125 -20 -125 41 0 78 75
106 128 48z m256 15 c53 -42 23 -122 -46 -122 -73 0 -93 105 -25 133 33 13 42
12 71 -11z m-1599 -14 c56 -55 16 -145 -63 -145 -51 0 -84 34 -84 85 0 78 92
116 147 60z m270 0 c35 -34 33 -78 -4 -116 -33 -32 -58 -36 -100 -14 -47 24
-56 83 -20 129 28 36 89 37 124 1z m250 19 c17 -7 45 -54 45 -78 0 -8 -12 -28
-26 -45 -70 -84 -191 17 -123 103 21 26 65 35 104 20z m555 -16 c27 -30 26
-73 -5 -103 -30 -30 -64 -32 -99 -4 -31 24 -36 81 -9 111 23 26 87 24 113 -4z
m-938 -138 c26 -27 30 -36 25 -67 -9 -52 -38 -78 -88 -78 -81 0 -117 88 -60
146 40 40 82 39 123 -1z m264 6 c59 -50 20 -146 -60 -146 -74 0 -109 98 -52
146 15 13 40 24 56 24 16 0 41 -11 56 -24z m269 -1 c53 -52 18 -135 -57 -135
-51 0 -78 27 -78 79 0 73 84 108 135 56z m270 0 c50 -49 15 -135 -55 -135 -41
0 -80 39 -80 80 0 41 39 80 80 80 19 0 40 -9 55 -25z m266 6 c17 -13 23 -29
23 -56 0 -71 -90 -104 -133 -49 -28 35 -26 69 4 99 29 30 73 33 106 6z m269
-1 c43 -43 12 -123 -49 -123 -43 0 -74 32 -73 75 2 61 79 91 122 48z m270 -2
c11 -12 20 -32 20 -45 0 -31 -42 -73 -73 -73 -33 0 -67 35 -67 70 0 63 77 93
120 48z m-1473 -141 c54 -54 16 -147 -60 -147 -47 0 -87 38 -87 82 0 85 88
124 147 65z m262 7 c61 -51 28 -144 -50 -144 -83 0 -118 83 -60 141 36 36 70
37 110 3z m272 -3 c17 -18 29 -40 29 -56 0 -16 -12 -38 -29 -56 -18 -17 -40
-29 -56 -29 -35 0 -85 50 -85 85 0 35 50 85 85 85 16 0 38 -12 56 -29z m257
13 c32 -22 43 -57 31 -94 -13 -35 -36 -50 -76 -50 -77 1 -106 99 -41 144 29
20 57 20 86 0z m276 -5 c45 -35 33 -106 -23 -128 -24 -10 -34 -10 -59 3 -49
25 -57 81 -17 121 30 30 64 32 99 4z m271 -4 c14 -13 25 -36 25 -50 0 -33 -42
-75 -75 -75 -33 0 -75 42 -75 75 0 33 42 75 75 75 14 0 37 -11 50 -25z m266 7
c48 -40 17 -122 -46 -122 -40 0 -68 30 -68 72 0 36 32 68 68 68 13 0 33 -8 46
-18z m-690 -122 c34 0 60 -70 43 -115 -10 -24 -60 -46 -89 -39 -31 8 -65 49
-65 78 0 43 54 92 88 80 8 -2 18 -4 23 -4z m272 -1 c49 -22 61 -86 22 -124
-30 -31 -66 -32 -101 -2 -45 39 -34 105 21 127 27 12 31 12 58 -1z m291 -19
c27 -26 25 -78 -3 -102 -48 -38 -121 -9 -121 48 0 74 71 105 124 54z m269 2
c23 -21 22 -74 -3 -97 -29 -26 -79 -24 -102 4 -58 72 34 155 105 93z m-1608
-7 c56 -55 16 -145 -63 -145 -51 0 -86 35 -86 87 0 73 96 111 149 58z m265 5
c45 -45 33 -111 -24 -138 -81 -39 -156 69 -94 135 28 30 89 32 118 3z m260 10
c22 -12 42 -64 33 -88 -22 -63 -94 -82 -138 -37 -50 49 -17 135 51 135 20 0
44 -4 54 -10z m-389 -149 c44 -45 35 -107 -21 -136 -60 -31 -130 11 -130 77 0
41 48 88 90 88 22 0 41 -9 61 -29z m265 5 c58 -49 20 -146 -56 -146 -16 0 -41
11 -56 24 -58 49 -20 146 56 146 16 0 41 -11 56 -24z m269 -1 c61 -60 -3 -164
-82 -134 -37 14 -52 38 -53 81 0 70 85 104 135 53z m270 0 c52 -51 12 -135
-65 -135 -31 0 -70 44 -70 78 0 74 84 109 135 57z m266 6 c17 -13 23 -29 23
-56 0 -70 -79 -101 -129 -50 -30 30 -32 64 -4 99 25 32 75 35 110 7z m269 -1
c26 -26 26 -81 0 -105 -47 -42 -123 -7 -123 56 0 61 80 92 123 49z m-1221
-125 c87 -45 33 -185 -62 -161 -69 17 -89 95 -38 147 33 32 58 36 100 14z
m280 -11 c61 -51 28 -144 -50 -144 -83 0 -118 83 -60 141 36 36 70 37 110 3z
m272 -3 c17 -18 29 -40 29 -56 0 -34 -50 -85 -84 -85 -72 0 -108 99 -52 146
37 32 71 30 107 -5z m270 0 c33 -33 35 -50 14 -90 -16 -31 -33 -41 -73 -41
-67 0 -99 97 -46 139 37 29 70 26 105 -8z m263 8 c45 -35 32 -108 -22 -127
-79 -27 -137 64 -77 123 30 30 64 32 99 4z m271 -4 c14 -13 25 -36 25 -50 0
-33 -42 -75 -75 -75 -33 0 -75 42 -75 75 0 33 42 75 75 75 14 0 37 -11 50 -25z
m-649 -157 c42 -81 -66 -158 -131 -93 -31 30 -32 73 -5 108 36 46 109 38 136
-15z m233 37 c32 -16 41 -33 41 -76 0 -67 -97 -97 -139 -43 -12 15 -21 36 -21
48 0 28 26 65 54 76 29 12 33 12 65 -5z m261 5 c19 0 50 -45 50 -72 0 -36 -40
-78 -74 -78 -39 0 -79 41 -78 79 1 48 44 87 80 75 8 -2 18 -4 22 -4z m-1045
-25 c56 -55 16 -145 -63 -145 -50 0 -86 36 -86 85 0 77 95 115 149 60z m270 0
c35 -34 33 -78 -4 -116 -33 -32 -58 -36 -100 -14 -32 16 -41 33 -41 78 0 71
93 105 145 52z m-134 -134 c32 -33 36 -58 14 -100 -20 -40 -66 -57 -105 -41
-65 27 -79 92 -31 141 40 39 82 39 122 0z m264 6 c57 -48 20 -147 -55 -147
-76 0 -114 97 -56 146 34 30 77 31 111 1z m270 -2 c52 -51 18 -135 -54 -135
-47 0 -81 32 -81 79 0 74 83 109 135 56z m270 0 c57 -56 0 -149 -79 -129 -55
13 -73 80 -35 128 28 35 80 36 114 1z m262 10 c29 -20 37 -59 19 -94 -25 -48
-82 -56 -121 -16 -30 30 -32 64 -4 99 24 30 71 35 106 11z m-938 -141 c62 -52
28 -154 -52 -154 -74 0 -118 99 -64 147 43 40 75 42 116 7z m270 0 c61 -51 26
-144 -54 -144 -79 0 -112 84 -56 141 36 36 70 37 110 3z m272 -3 c38 -39 38
-74 -1 -113 -26 -25 -36 -29 -63 -24 -39 7 -77 48 -77 82 0 34 51 84 85 84 16
0 38 -12 56 -29z m257 13 c66 -46 36 -143 -44 -144 -70 0 -103 91 -50 137 32
27 62 29 94 7z m-401 -134 c60 -36 52 -126 -14 -151 -53 -20 -113 23 -113 81
0 25 7 43 23 57 40 37 61 40 104 13z m257 6 c60 -25 68 -103 14 -140 -74 -52
-164 38 -112 112 13 19 39 36 62 41 1 1 18 -5 36 -13z m275 -1 c62 -32 55
-119 -12 -144 -48 -18 -107 23 -107 74 0 27 27 64 54 75 29 12 33 12 65 -5z
m-784 -20 c56 -55 16 -145 -63 -145 -50 0 -86 36 -86 85 0 77 95 115 149 60z
m136 -134 c16 -16 29 -39 29 -51 0 -35 -27 -76 -60 -90 -55 -23 -120 21 -120
83 0 40 49 87 90 87 22 0 41 -9 61 -29z m265 5 c58 -49 20 -146 -56 -146 -44
0 -84 40 -84 83 0 77 82 114 140 63z m269 -1 c52 -51 18 -135 -54 -135 -49 0
-81 32 -81 81 0 71 85 105 135 54z m-416 -120 c79 -41 43 -165 -48 -165 -11 0
-33 12 -50 26 -42 35 -43 84 -2 125 33 32 58 36 100 14z m264 3 c80 -42 52
-158 -38 -158 -79 0 -112 84 -56 141 31 31 59 36 94 17z m288 -17 c17 -18 29
-40 29 -56 0 -34 -50 -85 -84 -85 -41 0 -80 41 -80 85 0 29 7 43 28 61 37 32
71 30 107 -5z m-386 -144 c23 -33 19 -84 -10 -112 -53 -53 -149 -15 -149 58 0
41 33 84 68 89 31 5 74 -11 91 -35z m270 0 c47 -68 -35 -164 -107 -126 -34 18
-47 40 -48 80 0 38 28 74 65 81 29 6 73 -11 90 -35z"/>
</g>
</svg>
